<?xml version="1.0" encoding="utf-8"?><svg viewBox="0 0 34 34" xmlns="http://www.w3.org/2000/svg" xmlns:xlink="http://www.w3.org/1999/xlink"><style>:root>svg{display:none}:root>svg:target{display:block}</style><svg viewBox="0 0 9 16" id="arrow-right" xmlns="http://www.w3.org/2000/svg"><path d="M1.771 14.686L7.714 8 1.77 1.314"/></svg><svg viewBox="0 0 10 19" id="facebook" xmlns="http://www.w3.org/2000/svg"><path d="M9.184 10.547l.492-3.235h-3.13V5.204c0-.914.423-1.758 1.829-1.758h1.441V.668s-1.3-.246-2.53-.246C4.718.422 3.03 2.004 3.03 4.816v2.497H.148v3.234h2.883v7.875h3.516v-7.875h2.637z"/></svg><svg viewBox="0 0 16 17" id="in" xmlns="http://www.w3.org/2000/svg"><path d="M3.64 16.172V5.66H.372v10.512h3.27zM1.989 4.254c1.055 0 1.899-.879 1.899-1.934 0-1.02-.844-1.863-1.899-1.863A1.875 1.875 0 00.125 2.32c0 1.055.844 1.934 1.863 1.934zM15.84 16.172h.035v-5.766c0-2.812-.633-4.992-3.938-4.992-1.582 0-2.636.879-3.093 1.688h-.035V5.66h-3.13v10.512h3.27v-5.203c0-1.371.246-2.672 1.934-2.672 1.687 0 1.723 1.547 1.723 2.777v5.098h3.234z"/></svg><svg viewBox="0 0 17 18" id="instagram" xmlns="http://www.w3.org/2000/svg"><path d="M8.5 4.78a4.268 4.268 0 00-4.268 4.267A4.245 4.245 0 008.5 13.315a4.268 4.268 0 004.268-4.268c0-2.338-1.93-4.268-4.268-4.268zm0 7.05a2.78 2.78 0 01-2.783-2.783C5.717 7.525 6.94 6.3 8.5 6.3a2.74 2.74 0 012.746 2.746c0 1.558-1.225 2.783-2.746 2.783zm5.418-7.2a.998.998 0 00-1.002-1.001.998.998 0 00-1.002 1.002.998.998 0 001.002 1.002.998.998 0 001.002-1.002zm2.82 1.003c-.074-1.336-.37-2.524-1.336-3.488C14.438 1.18 13.25.883 11.914.809 10.541.734 6.422.734 5.05.809c-1.336.074-2.487.37-3.488 1.336C.596 3.109.299 4.297.225 5.633c-.075 1.373-.075 5.492 0 6.865.074 1.336.37 2.486 1.336 3.488 1.002.965 2.152 1.262 3.488 1.336 1.373.075 5.492.075 6.865 0 1.336-.074 2.524-.37 3.488-1.336.965-1.002 1.262-2.152 1.336-3.488.075-1.373.075-5.492 0-6.865zm-1.781 8.312c-.26.742-.854 1.3-1.559 1.596-1.113.445-3.71.334-4.898.334-1.225 0-3.822.111-4.898-.334a2.814 2.814 0 01-1.596-1.596c-.445-1.076-.334-3.674-.334-4.898 0-1.188-.111-3.785.334-4.899A2.862 2.862 0 013.602 2.59c1.076-.445 3.673-.334 4.898-.334 1.188 0 3.785-.111 4.898.334.706.26 1.262.853 1.559 1.558.445 1.114.334 3.711.334 4.899 0 1.224.111 3.822-.334 4.898z"/></svg><svg viewBox="0 0 34 34" id="phone" xmlns="http://www.w3.org/2000/svg"><path d="M32.001 26.075c-1.221-1.23-4.18-3.027-5.615-3.75-1.87-.942-2.023-1.02-3.493.072-.98.729-1.631 1.38-2.778 1.135-1.147-.245-3.64-1.624-5.822-3.8-2.182-2.174-3.642-4.739-3.887-5.882-.245-1.143.416-1.787 1.138-2.769 1.017-1.385.94-1.615.07-3.484-.677-1.454-2.526-4.385-3.761-5.6C6.53.69 6.53.922 5.68 1.276a12.32 12.32 0 00-1.987 1.06C2.462 3.152 1.779 3.831 1.3 4.852.824 5.873.61 8.266 3.076 12.748c2.467 4.481 4.198 6.773 7.78 10.345 3.582 3.572 6.337 5.493 10.364 7.751 4.982 2.79 6.893 2.246 7.917 1.77 1.023-.478 1.706-1.155 2.525-2.385.414-.628.77-1.292 1.062-1.985.354-.848.585-.848-.723-2.17z"/></svg><svg viewBox="0 0 24 24" id="to-top" xmlns="http://www.w3.org/2000/svg"><path fill-rule="evenodd" clip-rule="evenodd" d="M4.293 15.707a1 1 0 010-1.414l7-7a1 1 0 011.414 0l7 7a1 1 0 01-1.414 1.414L12 9.414l-6.293 6.293a1 1 0 01-1.414 0z"/></svg><svg viewBox="0 0 18 15" id="twitter" xmlns="http://www.w3.org/2000/svg"><path d="M16.137 3.766a7.818 7.818 0 001.828-1.899 6.918 6.918 0 01-2.11.563A3.607 3.607 0 0017.473.39a7.798 7.798 0 01-2.32.915 3.691 3.691 0 00-2.708-1.16 3.69 3.69 0 00-3.691 3.69c0 .282.035.563.105.845A10.71 10.71 0 011.23.813a3.59 3.59 0 00-.492 1.863c0 1.265.633 2.39 1.653 3.058C1.793 5.7 1.195 5.56.703 5.277v.035a3.696 3.696 0 002.953 3.622c-.281.07-.633.14-.949.14-.246 0-.457-.035-.703-.07.457 1.476 1.828 2.531 3.445 2.566a7.422 7.422 0 01-4.57 1.582c-.317 0-.598-.035-.879-.07 1.617 1.055 3.55 1.652 5.66 1.652 6.785 0 10.477-5.59 10.477-10.476v-.492z"/></svg></svg>